<svg xmlns="http://www.w3.org/2000/svg" width="512" viewBox="0 0 384 384" height="512" version="1.0"><defs><clipPath id="a"><path d="M18 0h348c4.773 0 9.352 1.895 12.727 5.273A17.984 17.984 0 0 1 384 18v348c0 9.941-8.059 18-18 18H18a17.984 17.984 0 0 1-12.727-5.273A17.984 17.984 0 0 1 0 366V18C0 8.059 8.059 0 18 0Zm0 0"/></clipPath><clipPath id="b"><path d="M39.113 39.113h306v306h-306Zm0 0"/></clipPath></defs><g clip-path="url(#a)"><path fill="#0ae98a" d="M-38.4-38.4h460.8v460.8H-38.4z"/></g><g clip-path="url(#b)"><path fill="#0ae98a" d="M242.918 345.691H39.691v-306h306v306H242.918M67.754 263.336c7.031 9.926 15.144 18.894 24.496 26.637 39.703 32.87 84.68 45.988 135.293 33.414 37.934-9.422 67.215-31.551 86.68-65.805 7.32-12.879 11.68-26.777 10.836-41.816-1.118-19.88-9.641-30.086-29.008-34.395-9.7-2.156-19.586-3.5-29.383-5.226-24.95-4.395-41.055-18.82-48.898-42.817-3.98-12.187-4.95-24.758-5.684-37.422-.457-7.89-1.027-15.832-2.395-23.601-1.312-7.434-6.214-12.344-13.89-13.235-4.633-.535-9.488-.355-14.098.403-7.633 1.257-12.058 5.91-13.074 13.515-.676 5.055-.3 10.235-.754 15.328-.996 11.246-1.445 22.618-3.496 33.684-5.48 29.559-22.945 47.879-52.688 54.313-9.703 2.097-19.214 5.113-28.75 7.933-3.312.98-6.507 2.473-9.613 4.016-18.133 9.004-23.672 23.199-20.547 42.254 1.98 12.086 7.88 22.535 14.973 32.82m178.375-122.309c2.387-1.23 2.914-3.39 3.05-5.832.337-6 3.36-10.457 8.419-13.402 11.043-6.43 24.672 1.086 25.449 13.922.23 3.812 1.96 5.707 5.16 5.652 3.207-.054 4.754-1.996 4.715-5.926-.137-14.043-12.227-25.754-26.738-25.906-14.313-.152-26.598 11.61-27.153 25.942-.14 3.613 2.399 6.87 7.098 5.55m-132.473-31.492c-14.785.172-26.375 11.11-27.316 25.766-.266 4.152 2.785 7.02 6.469 5.922 2.886-.86 3.464-3.282 3.668-5.946.562-7.445 5.925-13.77 12.894-15.32 7.633-1.703 15.129 1.418 18.719 8.285 1.293 2.469 1.726 5.446 2.222 8.25.563 3.188 2.364 5.008 5.383 4.871 2.871-.125 4.504-1.972 4.5-5.246-.004-1.539-.047-3.11-.351-4.61-2.574-12.695-11.781-20.546-26.188-21.972Zm0 0"/></g><path fill="#fffffe" d="M67.64 263.164c-6.98-10.113-12.878-20.562-14.859-32.648-3.125-19.055 2.414-33.25 20.547-42.254 3.106-1.543 6.3-3.035 9.613-4.016 9.536-2.82 19.047-5.836 28.75-7.934 29.743-6.433 47.207-24.753 52.688-54.312 2.05-11.066 2.5-22.438 3.496-33.684.453-5.093.078-10.273.754-15.328 1.016-7.605 5.441-12.258 13.074-13.515 4.61-.758 9.465-.938 14.098-.403 7.676.89 12.578 5.801 13.89 13.235 1.371 7.77 1.938 15.71 2.395 23.601.738 12.664 1.703 25.235 5.684 37.422 7.843 23.996 23.949 38.422 48.898 42.817 9.797 1.726 19.68 3.07 29.383 5.226 19.367 4.309 27.89 14.516 29.008 34.395.843 15.039-3.516 28.937-10.836 41.816-19.465 34.254-48.746 56.383-86.68 65.805-50.613 12.574-95.59-.543-135.293-33.414-9.352-7.743-17.465-16.711-24.61-26.809m89.294-60.586c6.191 7.758 15.812 10.68 23.164 16.984-1.633 3.918-3.828 6.192-7.5 8.63-6.86 4.55-14.344 4.913-22.036 3.5-6.164-1.137-12.355-2.368-16.425-8.114-.578-.82-3.301-1.035-4.305-.39-.96.617-1.695 3.003-1.25 4.09.758 1.863 2.29 3.597 3.898 4.886 5.215 4.168 11.45 5.93 17.958 6.668 4.269.484 8.585.566 12.867.832.445 10.633 8.453 19.852 18.425 21.285 6.473.93 12.489-.422 18.075-3.738 7-4.16 10.465-10.555 11.207-18.488 2.312.257 4.316.566 6.336.699 10.824.703 20.793-2.477 30.492-6.824 2.808-1.258 3.758-2.95 2.844-5.067-.903-2.094-2.88-2.562-5.696-1.445-3.316 1.312-6.605 2.703-9.988 3.812-9.547 3.125-19.121 3.832-28.598-.312-5.097-2.23-9.675-5.125-12.597-10.3 1.37-.497 2.64-.735 3.664-1.364 4.191-2.578 8.402-5.149 12.426-7.977 2.824-1.988 5.687-4.097 7.953-6.664 6.02-6.804 4.75-11.625-4.067-13.758-6.89-1.664-14.066-2.507-21.16-2.886-10.527-.559-21.101-.266-31.312 2.883-8.04 2.476-9.137 5.722-4.375 13.058Zm0 0"/><path d="M245.914 141.117c-4.48 1.23-7.023-2.027-6.883-5.64.555-14.332 12.84-26.094 27.153-25.942 14.511.153 26.601 11.863 26.738 25.906.039 3.93-1.508 5.871-4.715 5.926-3.2.055-4.93-1.84-5.16-5.648-.777-12.84-14.406-20.356-25.45-13.926-5.058 2.945-8.081 7.402-8.417 13.402-.137 2.442-.664 4.602-3.266 5.922Zm-132-31.582c14.148 1.426 23.356 9.274 25.93 21.973.304 1.5.347 3.07.351 4.61.004 3.273-1.629 5.116-4.5 5.245-3.02.137-4.82-1.683-5.382-4.87-.497-2.805-.93-5.782-2.223-8.25-3.59-6.868-11.086-9.99-18.719-8.286-6.969 1.55-12.332 7.875-12.894 15.32-.204 2.664-.782 5.086-3.668 5.946-3.684 1.097-6.735-1.77-6.47-5.922.942-14.656 12.532-25.594 27.575-25.766ZM156.805 202.414c-4.633-7.172-3.535-10.418 4.504-12.894 10.21-3.149 20.785-3.442 31.312-2.883 7.094.379 14.27 1.222 21.16 2.89 8.817 2.13 10.086 6.95 4.067 13.754-2.266 2.567-5.13 4.676-7.953 6.664-4.024 2.828-8.235 5.399-12.426 7.977-1.024.629-2.293.867-3.664 1.363 2.922 5.176 7.5 8.07 12.597 10.3 9.477 4.145 19.051 3.438 28.598.313 3.383-1.105 6.672-2.5 9.988-3.812 2.817-1.117 4.793-.649 5.696 1.445.914 2.117-.036 3.809-2.844 5.067-9.7 4.347-19.668 7.527-30.492 6.824-2.02-.133-4.024-.442-6.336-.7-.742 7.934-4.207 14.329-11.207 18.489-5.586 3.316-11.602 4.668-18.075 3.738-9.972-1.433-17.98-10.652-18.425-21.285-4.285-.266-8.598-.348-12.868-.832-6.507-.738-12.742-2.5-17.957-6.668-1.609-1.289-3.14-3.023-3.898-4.887-.445-1.086.29-3.472 1.25-4.09 1.004-.644 3.727-.43 4.305.391 4.07 5.746 10.261 6.977 16.425 8.113 7.692 1.414 15.176 1.051 22.036-3.5 3.672-2.437 5.87-4.71 7.5-8.629-7.352-6.304-16.973-9.226-23.293-17.148m14.855 34.676c-.375 1.441-1.234 2.957-1.039 4.32 1.059 7.348 7.754 12.73 15.36 12.625 9.613-.133 17.3-6.824 17.707-15.297.085-1.785-.426-2.761-2.11-3.539-4.887-2.258-9.144-5.39-12.36-9.797-.695-.953-1.35-1.933-2.214-3.172-3.535 6.852-8.274 11.766-15.344 14.86Zm0 0"/><path fill="#ef666d" d="M171.863 237c6.867-3.004 11.606-7.918 15.14-14.77.864 1.239 1.52 2.22 2.216 3.172 3.215 4.407 7.472 7.54 12.36 9.797 1.683.778 2.194 1.754 2.108 3.54-.406 8.472-8.093 15.163-17.707 15.296-7.605.106-14.3-5.277-15.359-12.629-.195-1.36.664-2.875 1.246-4.406Zm0 0"/></svg>
